/* XPM */
static char *f382adaf63184cca821d7e7baf9a7f8eHTYb7phPYeLaSfG8[] = {
/* columns rows colors chars-per-pixel */
"64 63 233 2 ",
"   c #000000",
".  c #0A0807",
"X  c #0B0A0B",
"o  c #090606",
"O  c #130D0C",
"+  c #180F0C",
"@  c #14110F",
"#  c #0F0F11",
"$  c #131313",
"%  c #1D1B1C",
"&  c #191617",
"*  c #120F10",
"=  c #271A18",
"-  c #3A221D",
";  c #2D211A",
":  c #1A1D25",
">  c #1C1E2B",
",  c #1D212C",
"<  c #1E2533",
"1  c #1F293A",
"2  c #22242D",
"3  c #2C2B2C",
"4  c #292426",
"5  c #352523",
"6  c #382A28",
"7  c #37332E",
"8  c #232533",
"9  c #252935",
"0  c #2B2B34",
"q  c #242A3B",
"w  c #2B2D3A",
"e  c #232637",
"r  c #332E34",
"t  c #372F36",
"y  c #2D313C",
"u  c #333235",
"i  c #34333B",
"p  c #3C373B",
"a  c #452C27",
"s  c #4B322D",
"d  c #54352C",
"f  c #483837",
"g  c #573B37",
"h  c #6D3B37",
"j  c #53413E",
"k  c #664439",
"l  c #272E41",
"z  c #2D3243",
"x  c #2C334A",
"c  c #253044",
"v  c #32364A",
"b  c #353B4D",
"n  c #3C3C4C",
"m  c #373743",
"M  c #2E3A57",
"N  c #343B55",
"B  c #423B43",
"V  c #473E48",
"C  c #543F45",
"Z  c #3B4259",
"A  c #3B4562",
"S  c #3B4765",
"D  c #3D4D71",
"F  c #44444C",
"G  c #4A4548",
"H  c #584749",
"J  c #434554",
"K  c #4B4B54",
"L  c #4D4D5A",
"P  c #474656",
"I  c #514F5B",
"U  c #584952",
"Y  c #52525B",
"T  c #595458",
"R  c #4F5059",
"E  c #674A46",
"W  c #7A4C44",
"Q  c #69514C",
"!  c #78544C",
"~  c #68575A",
"^  c #775957",
"/  c #674E54",
"(  c #72625B",
")  c #454C66",
"_  c #4B5268",
"`  c #575766",
"'  c #424E74",
"]  c #435276",
"[  c #47557B",
"{  c #50556F",
"}  c #695966",
"|  c #696569",
" . c #7A6869",
".. c #696573",
"X. c #797077",
"o. c #5E6275",
"O. c #89594E",
"+. c #885C56",
"@. c #965E56",
"#. c #84635D",
"$. c #8A635D",
"%. c #876559",
"&. c #94625C",
"*. c #966557",
"=. c #98735F",
"-. c #A2695F",
";. c #8B6963",
":. c #886968",
">. c #926D65",
",. c #976C67",
"<. c #8E7268",
"1. c #96736B",
"2. c #9B746B",
"3. c #997666",
"4. c #896D73",
"5. c #876A72",
"6. c #8C7475",
"7. c #89797B",
"8. c #9D7B72",
"9. c #997876",
"0. c #956F70",
"q. c #A6766A",
"w. c #A37B73",
"e. c #AA7C75",
"r. c #A77C79",
"t. c #AD796F",
"y. c #9B827D",
"u. c #A58175",
"i. c #A5837B",
"p. c #AB857B",
"a. c #AC8676",
"s. c #B3837B",
"d. c #B38B7B",
"f. c #B68679",
"g. c #B7917D",
"h. c #4C5E85",
"j. c #586589",
"k. c #767987",
"l. c #68708E",
"z. c #877A85",
"x. c #937886",
"c. c #8A8789",
"v. c #988687",
"b. c #8F8991",
"n. c #988D95",
"m. c #AD8B83",
"M. c #A78785",
"N. c #B38D84",
"B. c #BB8D83",
"V. c #BA8985",
"C. c #B59284",
"Z. c #BC9484",
"A. c #B5958B",
"S. c #BB958C",
"D. c #BD9A8B",
"F. c #A48D98",
"G. c #BE9C92",
"H. c #B69695",
"J. c #A7948C",
"K. c #BFA096",
"L. c #9E9FA2",
"P. c #A998A1",
"I. c #A8A5A6",
"U. c #BDA6A6",
"Y. c #BAB6B8",
"T. c #BCADB1",
"R. c #C28C86",
"E. c #C2968C",
"W. c #C49C8C",
"Q. c #C59689",
"!. c #C39C93",
"~. c #C89B95",
"^. c #D29E98",
"/. c #C9A38D",
"(. c #C5A294",
"). c #CCA494",
"_. c #C5A499",
"`. c #CCA59B",
"'. c #CCAA9D",
"]. c #CBAA98",
"[. c #D3AB9C",
"{. c #D2A69A",
"}. c #D5B29D",
"|. c #C4A9A2",
" X c #CCAEA4",
".X c #C7A5A6",
"XX c #D3ADA2",
"oX c #DAAAA4",
"OX c #C9B3A9",
"+X c #D4B2A4",
"@X c #DAB4A4",
"#X c #DDBAA6",
"$X c #D5B4AA",
"%X c #DBB6AC",
"&X c #DCBBAC",
"*X c #D5B9AB",
"=X c #D5B5B3",
"-X c #DDBCB2",
";X c #D7B9B0",
":X c #CCADB4",
">X c #E2BDAC",
",X c #E0B6AF",
"<X c #E3BDB4",
"1X c #E9B6B4",
"2X c #E8ADAE",
"3X c #DDC3B6",
"4X c #E3C2AE",
"5X c #E8C3AF",
"6X c #E4C3B3",
"7X c #EAC9B7",
"8X c #E4C4BA",
"9X c #E5CABB",
"0X c #EBCBBB",
"qX c #E8C8B6",
"wX c #EDD1BF",
"eX c #F0C5BF",
"rX c #C0BDC0",
"tX c #C8C6C5",
"yX c #DADAD8",
"uX c #D0CDD0",
"iX c #EDCCC2",
"pX c #E3CBC0",
"aX c #F1CDC2",
"sX c #EBD2C3",
"dX c #F2D3C5",
"fX c #F3D5CA",
"gX c #F4DACC",
"hX c #F3D8C6",
"jX c #F6DDD1",
"kX c #FAE2D5",
"lX c #FCE8DB",
"zX c #F8E0CF",
"xX c #F1F0ED",
/* pixels */
"                                                                                                                                ",
"                                                                                                                                ",
"                                                                                                                                ",
"                                                                                                                                ",
"                                                              o o o o o o                                                       ",
"                                                        o $ 7 K | | K F m p % o                                                 ",
"                                                    o $ p R K c.yXxXtXI.Y.L.c.B . o                                             ",
"                                                o $ 3 F Y ` T I.xXY.| T o.I.yX3X| % X o                                         ",
"                                              * u F J L L K | Y.xXyXc.| } X.uXxXuXX.G 7 : #                                     ",
"                                          o * 2 F K K R L L R 7.tXuXY.X.T c.I.tXyXuXL.n.y.p $ .                                 ",
"                                          % F K R R R R R Y Y K Z y 3 0 0 i u F T c.y.| | L.| %                                 ",
"                                        o 0 Y Y Y R R Y K F m 0 3 3 0 0 0 9 0 0 y u Z R | c.tXG o                               ",
"                                        & F L I I I R F w 8 2 2 4 3 8 9 9 0 9 0 y u u m Z c.yXX.$                               ",
"                                      o 4 P I I I K i 2 > > : > , , , , < , 8 9 q 9 y y 7 Z L.L.u o                             ",
"                                      $ F L L L V w , : : : : > , : , : , , < < 9 1 q y u b Z X.T $                             ",
"                                    X i ` L L n w > > : > > > > : , , < 8 8 < < < 9 q y y y u Z ` u .                           ",
"                                  o % Z K K Z 9 > > > > > > > < > 2 > 8 < < e 1 < 1 e q w l l v P ` 4 o                         ",
"                                  # Z R K Z y 1 e e q l q e e q e e q e l l 1 e 1 1 q l l w l z b _ F X                         ",
"                                o % K K Z Z z z z x v M M b n V V N m v x x x l c c c c l l x x Z Z ` 3 o                       ",
"                                o 9 Z F y 1 q y l z v b V ) ` } ..} _ ) A A A A S N M M M M M M Z S { Y #                       ",
"                                X 0 i 0 2 , 2 , 8 w t f C ~ 5.9.x.7..._ ) ' { ' [ ] ] [ ' ' ' D S ] j.o.$ o                     ",
"                                X u y i u 9 0 9 r f E / ^ 0.w.i.p.r.5./ ) S A ' D ' ' [ h.h.h.h.j.j.l.l.$ o                     ",
"                                # u i p i B B t H ;.2.u.s.d.d.d.d.d.x.,./ C V N N M N A S S D ] [ h.j.k.$                       ",
"                              o % u i 0 f E C E 8.D.D.(.D.D.W.D.Z.S.Z.V.x.5.} C m x x M N M M M A S { k., o                     ",
"                            . % i u u 6 j ^ k 3.K.(.].|. X[.'.(.(.(.!.D.G.A.M.4.T m m v n b N Z Z ) { k.u o                     ",
"                            X u Z t t 7 ^ ;.^ g.C.d.i.g.G. X*X$XXX X'.`._.).W.C.<.H B m n n N J Z Z ) ..u o                     ",
"                          # 3 u B m t g <.1.A.].(.D.u.<.>.i.(.$X&X$X$X+XXX X`.W.C.<.E j f V K P J n Z L u X                     ",
"                        # ~ v. .f f f Q i.G.*XOX|.|._.C.8.<.u.W.+X&X3X&X&X*X+X[.K.C.1.^ Q / ^ ~ U i u Z 3 o                     ",
"                        4 OX3XH.H H Q ^ M.U.x.9.v.M.M.V.N.M.N.S.].*X6X3X&X*X*X*X+X].D.i.>.:.:.:./ V w m 0 .                     ",
"                      o 7 $X%X|.! E 6.y.y. ./ x.x.z.4.4.9.w.m.!.].#X3X4X&X+X]._.!.A.m.M.8.2.2.9.4.H t m i o                     ",
"                        7 [.@X8X8.! ].*Xp.Q u.H.F.b.X. .:.1.1.p.].&X4X#X].).D.d.1.$.#.#.#.$.1.p.m.~ V B 3 o                     ",
"                      . H >XaX0Xa.w.7XhX3Xy.$X|..Xn.} / 4.8.0.:.m.&X0X#X/.C.a.w.,.;.,.1.0.>.1.N.!. .H K $                       ",
"                      X ( aXhX[.q.].hXwX*XA.iX-X=X.Xx.9.R.x.9.0.;.m.+X+XD.w.>.%.+.,.q.N.H.H.A.G.|. .H F X                       ",
"                      X ~ dX&Xf.q.5XhXhX+XA.gX8X$X`.~.Z.R.t.x.M.;.;.p.w.>.+.! E / ^ #.4.r.S.OX X|. .V r o                       ",
"                      . H 0X#X).g.5XhXhX4XK.zXhX<X`.Q.V.e.V.!.!.;.1.W.e.! k ^ } } U } X.5.4.F.OX|.~ C : o                       ",
"                      . G sXdX4X/.wXhXzXwXOX3XzXfX<XoX{.{.{.XXV.,._.0X!.^ ^ 9.:./ C ..b.x.x.4.6.v.T z.4                         ",
"                      o p hXhX&X].7XhXzXkX3XOXsXfXfXaXeX7X6X X8.A.gXjXA.+.0.w.0.0.:.F.P.F.P.F.~ ~ T Y.m .                       ",
"                        7 sXwX).}.7XzXzXlXgX*X'.8XfXhXfX0X%Xp.N.sXlXjXH.0.V.x.e.t.V.S.H..X.X:X .U } T.Y X                       ",
"                        ; OX4Xg.}.9XhXzXkXkXiX+X[.XX+X[.!.u.A.pXlXlXjX!.w.E.{.~.V.x.V.~..X=X=X5.U 4.H. .$                       ",
"                        % J.+Xu.}.qXwXhXgXgXdX5X,X[.Q.C.B.!.9XlXlXlXfX$Xw.B.@XoXXX^..X^.:X=X.XM.+.N.N.7.&                       ",
"                        @ ( D.,.}.9X7X7XwX9X9X4X@X).R.Q.>XzXlXlXlXjXgXiXr.p.%X%X%X-X-X%X=X=XN..Xw.`.S.T X                       ",
"                        . p y.<.].qX4X4X4X4X4X].B.f.Q.}.0XjXjXlXlXjXfXfX_.w.`.8X<X%X<XpX8XG.G. Xp. XOX3 o                       ",
"                          3 F.:./.4X4X4X5X}.g.=.t./.@XqX%X!.).iXfXfXiXiX<XV.e.^.<X<X<X=X!.G.;X'.C.XXT.;                         ",
"                          $ T Q A.4X#X4X5X/.O.*.s.).<XiX<X~.~.%X<X2X.X~.%XE.t.f.S.S.S.~.$X<X8X X!.*X| O                         ",
"                          o 3 ~ a.}.#X5X5Xf.W *.r.^.<X<X+X~.B.B.!.B.t.0.R.R.t.f.~..X X-X8X9X-XD.G.U.7                           ",
"                          o & H =./.}.#X}.g.*.q.@.&.~.{.E.a.&.,.q.&.,.t.R.E.V.s.~.oX-X6X8X8X XS. XX.$                           ",
"                            . 7 ^ g./.#X#XQ.a.g.@.h t.R.e.t.q.s.t.+.+.,.V.S.V.r.V.).@X&X&X3XD.G.K.u                             ",
"                            o & Q u./.}.}.[.Q.#XoXr.R.,XoX~.R.R.s.q.O.$.w.9.0.q.e.Q.].[.+X$XN.H.~ $                             ",
"                              O j %.g.].}.}.}.0XwX>X>XiXjXfX0X@X~.e.@.+.+.+.W O.3.R./.]. X|.w.6.4                               ",
"                              o % k u./.}.#X#X7XhXdXaXpX1X5XdXdXwX<X^.,.h h h k q.W.).].`.r.( 6 X                               ",
"                                @ j %.g.}.4X4XqXiXiXiXeX2XoXQ.^.{.oX^.t.;.@.O.O.a./././.D.^ t O                                 ",
"                                . 5 k 3.].#X5X5X0X6X1X1X1X1X1X2X2XoX^.E.~.Z.t.q.Z.W.D.A.<.f $                                   ",
"                                  & d O.g.}.5X5X6X%X{.^.^.oX2X2XoX^.^.^.[.).g.Q.Q.g.a.;.C $                                     ",
"                                  X a j %.g.4X7X7X>X^.f.t.t.f.R.R.R.R.^.}./.W.g.a.=.%.H 4 X                                     ",
"                                  . ; d j =.].qX0X0X>X).f.-.@.@.-.t.Q.)./.Q.d.q.$.^ j 5 #                                       ",
"                                  o @ s d E y.].&XdXfXdX1X).f.g.Q.Q./././.d.=.O.E f = o                                         ",
"                                    . ; a s Q 1.S.$X0XdXdX0X<X<X1X#X}./.g.3.! k g &                                             ",
"                                      . = 6 f E $.m.G.).XX@XoXoX[.{.D.d.%.E g j =                                               ",
"                                        o = - 6 f E ! +.2.w.e.e.t.3.%.Q g s g s $                                               ",
"                                          + - - 5 a s d g g E E k j s 7 7 a f =                                                 ",
"                                            . + = - a - a - - 5 5 5 5 = = O o                                                   ",
"                                                o = d h a - = = = = * o                                                         ",
"                                                    . a h d - = = O                                                             "
};
